<svg width="464" height="282" viewBox="0 0 464 282" fill="none" xmlns="http://www.w3.org/2000/svg">
<g clip-path="url(#clip0_614_122)">
<g clip-path="url(#clip1_614_122)">
<path d="M50.963 179.164C64.8197 226.977 120.393 258.472 174.919 243.472C196.208 237.625 212.285 223.548 236.661 222.702C259.532 221.912 285.805 230.989 309.603 233.619C360.269 239.265 433.334 228.759 439.923 184.17C442.809 164.638 430.825 138.876 426.865 118.815C422.329 95.7404 423.165 68.6167 399.96 49.3313C360.186 16.2389 300.857 18.68 255.452 24.6031C231.019 27.7813 217.414 30.1137 194.556 20.654C173.402 11.8763 156.371 -3.57025 131.712 2.73437C113.197 7.4672 106.956 25.439 90.561 32.5822C72.0905 40.6306 56.4242 37.3735 43.6298 53.4806C28.1136 73.025 38.5425 90.6283 42.7992 112.944C47.056 135.261 44.4291 156.665 50.963 179.164Z" fill="#EAD7C5"/>
<ellipse cx="407" cy="271" rx="50" ry="7.5" fill="#F7EAD9"/>
<ellipse cx="103.5" cy="270" rx="103.5" ry="9.5" fill="#F7EAD9"/>
<ellipse cx="307.5" cy="253.5" rx="27.5" ry="5.5" fill="#F7EAD9"/>
<path d="M164.315 122.362H80.0977V175.184H164.315V122.362Z" fill="#D37C59"/>
<path d="M164 186H80V244H164V186Z" fill="#D37C59"/>
<path d="M164.606 175.184H91.9648V186.212H164.606V175.184Z" fill="#806D53"/>
<path d="M164.314 122.071H74.8867V127.295H164.314V122.071Z" fill="#ED6E58"/>
<path d="M99.7777 159.511H89.6484V141.807H99.7777V159.511ZM94.279 158.64V154.577H90.5167V158.64H94.279ZM94.279 153.416V148.773H90.5167V153.416H94.279ZM94.279 147.902V142.968H90.5167V147.902H94.279ZM94.8578 142.968V147.902H98.6201V142.968H94.8578ZM94.8578 148.773V153.416H98.6201V148.773H94.8578ZM94.8578 154.287V158.35H98.6201V154.287H94.8578Z" fill="white"/>
<path d="M126.692 159.511H116.273V141.807H126.692V159.511ZM121.193 158.64V154.577H117.431V158.64H121.193ZM121.193 153.416V148.773H117.431V153.416H121.193ZM121.193 147.902V142.968H117.431V147.902H121.193ZM121.772 142.968V147.902H125.535V142.968H121.772ZM121.772 148.773V153.416H125.535V148.773H121.772ZM121.772 154.287V158.35H125.535V154.287H121.772Z" fill="white"/>
<path d="M153.606 159.511H143.477V141.807H153.606V159.511ZM148.107 158.64V154.577H144.345V158.64H148.107ZM148.107 153.416V148.773H144.345V153.416H148.107ZM148.107 147.902V142.968H144.345V147.902H148.107ZM148.975 142.968V147.902H152.738V142.968H148.975ZM148.975 148.773V153.416H152.738V148.773H148.975ZM148.975 154.287V158.35H152.738V154.287H148.975Z" fill="white"/>
<path d="M99.7777 213.784H89.6484V196.08H99.7777V213.784ZM94.279 212.623V208.56H90.5167V212.623H94.279ZM94.279 207.689V203.046H90.5167V207.689H94.279ZM94.279 202.175V196.951H90.5167V202.175H94.279ZM94.8578 196.951V202.175H98.6201V196.951H94.8578ZM94.8578 203.046V207.689H98.6201V203.046H94.8578ZM94.8578 208.56V212.623H98.6201V208.56H94.8578Z" fill="white"/>
<path d="M126.692 213.784H116.273V196.08H126.692V213.784ZM121.193 212.623V208.56H117.431V212.623H121.193ZM121.193 207.689V203.046H117.431V207.689H121.193ZM121.193 202.175V196.951H117.431V202.175H121.193ZM121.772 196.951V202.175H125.535V196.951H121.772ZM121.772 203.046V207.689H125.535V203.046H121.772ZM121.772 208.56V212.623H125.535V208.56H121.772Z" fill="white"/>
<path d="M153.606 213.784H143.477V196.08H153.606V213.784ZM148.107 212.623V208.56H144.345V212.623H148.107ZM148.107 207.689V203.046H144.345V207.689H148.107ZM148.107 202.175V196.951H144.345V202.175H148.107ZM148.975 196.951V202.175H152.738V196.951H148.975ZM148.975 203.046V207.689H152.738V203.046H148.975ZM148.975 208.56V212.623H152.738V208.56H148.975Z" fill="white"/>
<path d="M393.113 131.451H305.758V244H393.113V131.451Z" fill="#FED385"/>
<path d="M385.475 138.389H312.359V150.578H385.475V138.389Z" fill="#ED6E58"/>
<path d="M393.112 131.451H302.637V134.639H393.112V131.451Z" fill="#ED6E58"/>
<path d="M381.788 164.687H348.004V192.345H381.788V164.687Z" fill="#ED6E58"/>
<path d="M381.788 197.327H348.004V224.985H381.788V197.327Z" fill="#ED6E58"/>
<path d="M384.168 139.14H313.109V149.829H384.168V139.14Z" fill="white"/>
<path d="M331.435 139.14H330.5V149.829H331.435V139.14Z" fill="#ED6E58"/>
<path d="M380.632 165.841H349.434V190.852H380.632V165.841Z" fill="white"/>
<path d="M351.63 139.139H350.695V149.828H351.63V139.139Z" fill="#ED6E58"/>
<path d="M380.632 198.481H349.434V223.492H380.632V198.481Z" fill="white"/>
<path d="M324.531 43.9126H134.168V244H324.531V43.9126Z" fill="#F7EAD9"/>
<path d="M133 44.25L325 51V42H133V44.25Z" fill="#FED385"/>
<path d="M284 167H172V244H284V167Z" fill="#FED385"/>
<path d="M278 172H178V244H278V172Z" fill="white"/>
<path d="M275.239 176.324H181.242V190.979H275.239V176.324Z" fill="#E7D4C2"/>
<path d="M209 195H181V244H209V195Z" fill="#E7D4C2"/>
<path d="M245 195H211V244H245V195Z" fill="#E7D4C2"/>
<path d="M275 195H248V244H275V195Z" fill="#E7D4C2"/>
<path d="M240.241 203.357H218.402V234.621H240.241V203.357Z" fill="#E7D4C2"/>
<path d="M231 194H228V244H231V194Z" fill="white"/>
<path d="M212.923 117.828V93.1523H193.176V117.828C193.176 126.446 197.915 134.671 205.419 138.979L227.536 151.513V128.796L215.293 121.745C213.713 120.962 212.923 119.395 212.923 117.828Z" fill="#CA9867"/>
<path d="M227.547 142.659L249.855 129.589C257.424 125.232 262.205 116.915 262.205 108.201V58.6934H227.148V78.4965H242.286V108.597C242.286 110.578 241.091 112.162 239.896 112.954L227.547 120.083V142.659Z" fill="#EA4D2C"/>
<path d="M227.485 58.6934L193.125 93.1508H227.485V58.6934Z" fill="#53281A"/>
<path d="M301.262 207.152C300.582 206.78 293.362 202.003 292.18 202.003C290.998 202.003 291.096 202.7 291.096 202.911C291.096 203.121 291.241 204.513 294.544 205.371C294.835 205.727 299.659 210.616 301.1 211.199C301.116 209.661 301.262 207.152 301.262 207.152Z" fill="#FBC9B2"/>
<path d="M306.875 192.496C297.911 192.496 301.06 216.47 301.552 217.159C302.044 217.849 311.189 218.319 311.752 216.568C312.124 215.41 314.037 192.496 306.875 192.496Z" fill="#800200"/>
<path d="M312.751 246.241L311.27 248.219L313.034 249.54L314.515 247.562L312.751 246.241Z" fill="#DE8E68"/>
<path d="M309.768 250.44H307.078V252.193H309.768V250.44Z" fill="#DE8E68"/>
<path d="M301.549 217.16C301.549 217.16 296.113 235.723 296.113 236.099C296.113 236.475 311.284 248.873 311.566 248.873C311.847 248.873 313.014 246.609 313.014 246.215C313.014 245.821 309.403 242.842 309.403 242.842L301.549 217.16Z" fill="#53281A"/>
<path d="M309.878 250.479L311.565 216.855C310.773 217.424 306.691 218.587 301.551 217.16C301.908 220.112 306.945 250.662 306.945 250.662H309.861L309.878 250.479Z" fill="#CD9A67"/>
<path d="M293.929 204.297L290 201.736L292.148 200.548L295.98 202.96L293.929 204.297Z" fill="#333333"/>
<path d="M306.854 202.457C306.837 203.123 307.407 207.641 308.227 209.812C307.917 211.411 306.211 220.358 306.211 220.358L307.41 221.908C307.41 221.908 311.796 212.593 312.018 211.136C312.24 209.68 311.708 202.457 311.619 202.103C311.529 201.748 306.854 202.457 306.854 202.457Z" fill="#FBC9B2"/>
<path d="M307.698 188.995H304.719V193.676C304.719 194.275 307.698 194.24 307.698 193.676V188.995Z" fill="#FCC2A8"/>
<path d="M308.31 186.969C308.461 184.308 307.329 182.079 305.781 181.991C304.233 181.903 302.856 183.988 302.704 186.649C302.553 189.311 303.685 191.539 305.233 191.627C306.78 191.716 308.158 189.63 308.31 186.969Z" fill="#FBC9B2"/>
<path d="M299.648 185.362C299.648 184.896 299.915 184.363 299.915 183.83C299.915 183.364 299.715 182.831 299.715 182.165C299.715 181.033 300.847 180.5 301.447 180.5C302.579 180.5 302.845 181.299 304.644 181.299C305.709 181.299 306.176 181.033 306.775 181.033C308.64 181.033 308.906 183.364 308.906 183.63C308.906 184.763 310.438 184.829 310.438 186.028C310.438 187.16 309.239 188.493 308.307 188.493C307.375 188.493 306.509 187.627 306.509 187.36C306.509 186.761 306.642 186.628 306.642 186.228C306.642 184.829 303.594 184.496 303.128 184.496C302.892 185.207 302.753 185.946 302.712 186.694C302.579 186.761 302.113 186.894 301.647 186.894C301.314 186.894 299.648 186.494 299.648 185.362Z" fill="#856D71"/>
<path d="M309.825 251.994H306.965L302.371 253.809V254.5H309.825V251.994Z" fill="black"/>
<path d="M314.399 247.417L312.824 249.519L311.629 253.896L312.136 254.277L316.241 248.796L314.399 247.417Z" fill="black"/>
<path d="M370.717 233.5C366.282 233.5 362.29 236.112 359.629 240.187C358.298 239.873 356.879 239.664 355.371 239.664C347.476 239.664 341 245.515 341 252.619C341 253.246 341.089 253.873 341.177 254.5H384.822C384.91 253.664 384.999 252.724 384.999 251.784C385.088 241.649 378.701 233.5 370.717 233.5Z" fill="#C39367"/>
<path d="M374.896 202.03C374.531 202.103 377.686 255.789 380.105 267.881L385.127 267.509L386.244 213.191H388.104L390.894 266.578H394.986L398.892 201.471C398.892 201.472 383.267 200.356 374.896 202.03Z" fill="#F78500"/>
<path d="M380.102 271.415C380.102 271.415 384.194 271.973 386.612 271.415C386.612 271.415 387.357 269.369 385.125 267.509C382.892 265.649 380.102 267.881 380.102 267.881V271.415H380.102Z" fill="#800200"/>
<path d="M390.891 266.579C390.891 266.579 390.705 269.555 390.891 271.043C390.891 271.043 398.704 271.304 402.999 271.279C403.788 271.275 404.009 270.2 403.287 269.881C401.906 269.271 399.428 267.237 394.983 266.579H390.891Z" fill="#800200"/>
<path d="M376.569 158.688C376.569 158.688 387.358 155.153 395.916 158.316L400.194 203.146C400.194 203.146 381.035 202.588 374.524 204.076L376.569 158.688Z" fill="#800200"/>
<path d="M368.676 162.372C368.676 162.372 373.408 158.874 379.361 157.944L377.576 203.448C377.532 204.58 376.717 205.535 375.606 205.757L374.971 205.884C374.361 206.007 373.797 205.53 373.815 204.908L374.372 185.701C374.472 182.241 373.841 178.799 372.522 175.599L368.676 162.372Z" fill="#800200"/>
<path d="M392.938 157.572C392.938 157.572 402.238 158.316 407.633 163.153L403.44 174.992C402.029 178.975 401.308 183.17 401.308 187.395L400.426 204.461C400.399 204.975 399.974 205.379 399.46 205.379C398.189 205.379 397.129 204.409 397.016 203.144L392.938 157.572Z" fill="#800200"/>
<path d="M382.521 150.445L382.36 156.885C382.344 157.521 382.669 158.095 383.164 158.307C384.518 158.888 387.323 159.771 389.982 158.614C390.518 158.381 390.841 157.714 390.758 157.029L389.961 150.445H382.521V150.445Z" fill="#FBC9B2"/>
<path d="M388.659 272.717C388.351 272.717 388.102 272.467 388.102 272.159V193.101C388.102 192.793 388.351 192.543 388.659 192.543C388.967 192.543 389.217 192.793 389.217 193.101V272.159C389.217 272.468 388.967 272.717 388.659 272.717Z" fill="#91B3FA"/>
<path d="M384.974 136.364C384.261 136.314 383.543 136.246 383.064 136.728C382.757 137.037 382.653 137.498 382.379 137.837C382.093 138.191 381.654 138.378 381.267 138.619C380.512 139.092 379.864 140.107 379.891 141.03C379.908 141.559 380.301 142.19 380.508 142.672C380.745 143.222 381.474 144.013 381.562 144.565C381.457 143.902 382.533 142.581 382.919 142.074C383.614 141.161 384.366 140.187 385.369 139.592C386.445 138.954 388.397 138.985 389.602 139.139C390.563 139.263 391.528 139.666 392.13 140.427C392.03 139.439 391.791 138.715 391.03 138.094C389.832 137.115 388.443 136.075 386.795 136.241C386.434 136.278 386.079 136.366 385.716 136.385C385.476 136.397 385.225 136.381 384.974 136.364Z" fill="white"/>
<path d="M381.298 140.724C380.932 141.846 380.817 143.169 380.618 144.575C380.246 147.215 379.881 149.856 379.52 152.497L386.192 153.266C386.991 150.527 387.734 147.772 388.54 145.036C388.968 143.578 389.273 141.611 390.687 140.746C391.511 140.242 392.551 140.509 391.932 139.37C391.477 138.534 390.155 137.927 389.301 137.653C387.913 137.209 386.404 137.241 384.982 137.557C382.745 138.054 381.792 139.206 381.298 140.724Z" fill="#FBC9B2"/>
<path d="M387.11 144.325C387.11 144.348 387.111 144.373 387.111 144.397C387.11 144.977 386.849 145.657 386.731 146.222C386.458 147.531 386.187 148.842 385.912 150.151C385.897 150.226 385.872 150.296 385.837 150.363C385.621 150.778 384.776 152.15 383.425 151.199C382.199 150.336 381.068 149.567 380.113 149.529C379.685 149.511 379.314 149.821 379.256 150.246C379.112 151.305 378.83 153.696 378.902 155.813C378.917 156.242 379.261 156.585 379.69 156.608C380.983 156.678 383.712 156.748 385.922 156.29C386.221 156.228 386.463 156.01 386.552 155.718C386.985 154.292 388.319 149.962 388.878 148.813C389.447 147.642 390.662 150.672 391.792 151.198C392.206 151.391 393.275 148.273 393.729 148.334C395.21 148.532 395.657 146.319 395.183 145.309C394.62 144.103 393.113 144.081 393.995 142.573C394.441 141.811 394.076 140.785 393.411 140.206C392.739 139.622 391.781 139.365 391.012 138.967C390.18 138.538 389.38 138.549 388.467 138.751C388.179 138.814 387.887 138.902 387.662 139.091C387.338 139.362 387.185 139.812 386.825 140.032C386.419 140.28 385.8 140.207 385.56 140.618C385.401 140.892 385.509 141.239 385.645 141.526C386.107 142.504 387.071 143.212 387.11 144.325Z" fill="white"/>
<path d="M388.109 150.838C388.109 150.838 388.395 147.341 389.839 146.97C391.283 146.599 392.874 147.613 391.682 149.789C390.2 152.497 388.109 150.838 388.109 150.838Z" fill="#FBC9B2"/>
<path d="M379.129 193.626C371.76 192.454 366.89 189.366 364.89 187.873C364.208 187.363 363.86 187.038 363.86 187.038C360.084 179.1 366.915 165.183 368.163 162.823C369.511 160.279 377.352 160.172 377.352 160.172C377.352 160.172 376.424 163.026 375.91 168.063C375.397 173.101 369.922 182.921 370.147 183.745C370.204 183.953 370.865 184.388 371.829 184.938C374.689 186.566 380.215 189.191 380.551 189.807C381 190.632 379.129 193.626 379.129 193.626Z" fill="#FBC9B2"/>
<path d="M380.552 189.809C380.552 189.809 384.669 188.162 385.679 188.836C386.69 189.51 388.373 190.52 388.373 191.193C388.373 191.867 386.24 193.664 384.443 194.224C382.647 194.785 379.129 193.626 379.129 193.626L380.552 189.809Z" fill="#FBC9B2"/>
<path d="M375.91 168.065C375.397 173.103 369.922 182.923 370.147 183.747C370.204 183.955 370.865 184.39 371.829 184.94C371.768 184.945 371.707 184.946 371.643 184.943C367.337 184.752 365.388 187.136 364.89 187.873C364.208 187.364 363.86 187.039 363.86 187.039C360.084 179.1 366.915 165.183 368.163 162.823C369.511 160.279 377.775 159.749 377.775 159.749C377.775 159.749 376.423 163.028 375.91 168.065Z" fill="#800200"/>
<path d="M396.602 194.049C403.97 192.877 408.84 189.789 410.84 188.296C411.523 187.787 411.871 187.462 411.871 187.462C415.646 179.524 408.816 165.606 407.567 163.247C406.219 160.702 398.379 160.595 398.379 160.595C398.379 160.595 399.307 163.449 399.82 168.487C400.333 173.525 405.808 183.345 405.583 184.168C405.527 184.376 404.866 184.811 403.902 185.361C401.042 186.989 395.516 189.614 395.18 190.23C394.731 191.055 396.602 194.049 396.602 194.049Z" fill="#FBC9B2"/>
<path d="M395.179 190.233C395.179 190.233 391.061 188.586 390.052 189.26C389.041 189.933 387.357 190.944 387.357 191.617C387.357 192.291 389.491 194.087 391.287 194.648C393.084 195.209 396.602 194.05 396.602 194.05L395.179 190.233Z" fill="#FBC9B2"/>
<path d="M399.82 168.489C400.333 173.527 405.808 183.347 405.583 184.17C405.527 184.378 404.866 184.813 403.902 185.363C403.962 185.368 404.024 185.369 404.087 185.366C408.394 185.176 410.343 187.559 410.84 188.296C411.523 187.787 411.871 187.462 411.871 187.462C415.646 179.524 408.816 165.606 407.567 163.247C406.219 160.702 397.955 160.172 397.955 160.172C397.955 160.172 399.308 163.451 399.82 168.489Z" fill="#800200"/>
<path d="M407.979 183.521C407.979 183.521 408.068 182.647 407.666 181.674C407.263 180.701 405.015 180.533 404.41 179.828C403.807 179.124 403.672 180.399 404.008 180.701C404.344 181.003 400.551 180.634 400.082 179.727C400.082 179.727 399.059 178.603 399.059 179.845C399.059 181.086 401.978 182.714 403.153 182.832C404.327 182.949 405.149 183.616 405.208 183.928C405.786 184.174 407.979 183.521 407.979 183.521Z" fill="url(#paint0_linear_614_122)"/>
<path d="M416.876 172.569C416.876 172.569 412.665 178.15 412.934 187.009C413.202 195.869 411.502 192.155 409.712 187.77C407.922 183.385 407.922 183.385 407.922 183.385L405.117 183.946C405.117 183.946 408.638 200.865 413.56 199.822C418.482 198.778 418.93 186.071 418.93 183.565C418.929 181.058 416.876 172.569 416.876 172.569Z" fill="#E52E2E"/>
<path fill-rule="evenodd" clip-rule="evenodd" d="M427.371 269.479L427.707 270.306L427.571 273.28C427.552 273.698 427.214 274.049 426.76 274.119C426.139 274.215 425.237 274.311 424.388 274.246C423.723 274.194 423.307 273.57 423.567 273.013L424.568 270.867C424.718 270.546 424.992 270.299 425.327 270.184L427.371 269.479Z" fill="black"/>
<path fill-rule="evenodd" clip-rule="evenodd" d="M428.418 242.509C428.418 242.509 428.418 264.078 427.403 270.153C427.351 270.465 427.113 270.716 426.802 270.768C426.517 270.817 426.128 270.805 425.664 270.599C425.43 270.496 425.274 270.267 425.243 270.013L422.375 242.886L428.418 242.509Z" fill="#FBC9B2"/>
<path fill-rule="evenodd" clip-rule="evenodd" d="M430.976 269.479L430.64 270.306L430.398 273.28C430.417 273.698 430.755 274.049 431.21 274.119C431.83 274.215 433.11 274.311 433.959 274.246C434.624 274.194 435.04 273.57 434.78 273.013L433.779 270.867C433.629 270.546 433.355 270.299 433.02 270.184L430.976 269.479Z" fill="black"/>
<path fill-rule="evenodd" clip-rule="evenodd" d="M429.93 242.509C429.93 242.509 429.93 264.362 430.97 270.297C431.004 270.492 431.141 270.656 431.329 270.716C431.632 270.813 432.14 270.871 432.784 270.554C432.951 270.472 433.068 270.31 433.091 270.125L435.973 242.887L429.93 242.509Z" fill="#FBC9B2"/>
<path d="M419.739 199.821C416.75 206.733 417.013 226.225 421.234 245.778C421.234 245.778 431.696 246.712 436.739 245.778C436.739 245.778 443.651 205.426 436.366 199.821H419.739Z" fill="#FD8369"/>
<path d="M441.408 173.854C441.408 173.854 437.484 167.315 429.265 165.447L424.968 165.26C424.968 165.26 418.803 168.249 416.188 173.854L419.55 188.238L419.737 199.821C419.737 199.821 429.639 202.062 436.364 199.821L437.859 185.622L441.408 173.854Z" fill="#E52E2E"/>
<path d="M424.594 160.029V167.109C424.594 167.682 425.01 168.169 425.577 168.254C426.515 168.395 427.966 168.505 429.211 168.13C429.785 167.958 430.139 167.383 430.024 166.795L428.704 160.029H424.594Z" fill="#FBC9B2"/>
<path d="M417.547 153.034C417.547 153.034 417.106 165.796 422.969 165.357C429.87 164.84 429.191 155.723 429.191 155.723C429.191 155.723 418.227 141.571 417.547 153.034Z" fill="#FBC9B2"/>
<path d="M415.509 152.674C415.566 153.691 416.693 154.274 417.562 153.741C418.436 153.205 419.536 152.617 420.559 152.316C427.465 150.29 426.298 155.61 426.535 156.319C427.022 157.767 427.706 155.086 427.951 155.547C428.485 156.55 428.74 160.052 428.74 160.052C428.74 160.052 432.464 157.547 433.503 155.06C434.786 151.99 432.043 147.803 430.409 146.44C428.911 145.192 424.069 144.109 422.181 144.941C420.493 145.685 415.196 147.062 415.509 152.674Z" fill="#E0E0E0"/>
<path d="M427.484 157.084C427.484 157.084 427.123 154.25 428.718 154.304C430.314 154.36 428.846 158.203 428.139 159.032L427.484 157.084Z" fill="#FBC9B2"/>
<path d="M441.408 173.854C441.408 173.854 455.046 194.964 439.353 204.678L437.922 202.642C437.922 202.642 445.332 191.788 438.42 182.073L441.408 173.854Z" fill="#E52E2E"/>
<path d="M436.177 275.015C435.816 275.015 435.523 274.722 435.523 274.361V205.986C435.523 205.625 435.816 205.333 436.177 205.333C436.539 205.333 436.831 205.626 436.831 205.986V274.361C436.831 274.722 436.539 275.015 436.177 275.015Z" fill="url(#paint1_linear_614_122)"/>
<path d="M437.859 202.624C437.859 202.624 434.31 203.931 434.123 206.733C433.936 209.536 434.31 210.283 434.87 209.348C435.43 208.414 435.991 207.48 437.112 206.733C438.232 205.986 439.353 204.678 439.353 204.678C439.353 204.678 439.167 202.624 437.859 202.624Z" fill="url(#paint2_linear_614_122)"/>
<path d="M32.363 259.589C32.4552 259.036 32.4552 258.483 32.4552 257.93C32.4552 251.57 26.5558 246.5 19.2737 246.5C11.9916 246.5 6 251.662 6 257.93C6 258.483 6.09218 259.036 6.18435 259.589H32.363Z" fill="#E7D4C2"/>
<path d="M45.363 256.028C45.4552 255.29 45.5474 254.461 45.5474 253.631C45.5474 244.69 39.6479 237.5 32.2737 237.5C24.8994 237.5 19 244.782 19 253.631C19 254.461 19.0922 255.198 19.1844 256.028H45.363Z" fill="#E7D4C2"/>
<path d="M41.0906 244.5C41 243.824 41 243.148 41 242.472C41 234.697 46.7979 228.5 53.9547 228.5C61.1115 228.5 67 234.81 67 242.472C67 243.148 66.9094 243.824 66.8188 244.5H41.0906Z" fill="#B6F4FC"/>
<path d="M61.7171 236.5C57.2817 236.5 53.2899 239.112 50.6286 243.187C49.298 242.873 47.8787 242.664 46.3707 242.664C38.4757 242.664 32 248.515 32 255.619C32 256.246 32.0887 256.873 32.1774 257.5H75.8217C75.9104 256.664 75.9991 255.724 75.9991 254.784C76.0878 244.649 69.7008 236.5 61.7171 236.5Z" fill="#C39367"/>
<path d="M91.4089 173.83C90.3651 168.985 85.4517 165.782 80.6237 168.507C79.5342 169.127 78.0845 170.306 77.3575 171.282C75.3999 173.933 75.0283 177.06 72.9909 179.63C73.8156 180.144 74.7902 180.662 75.9582 181.152L76.8607 181.494C80.2592 182.759 85.0127 183.662 91.4275 183.181C92.0639 179.713 91.9649 176.408 91.4089 173.83Z" fill="#030303"/>
<path d="M37.3615 154.152L37.0156 156.692C37.0156 156.692 38.9079 158.005 40.0621 156.509L39.8726 153.879L37.3615 154.152Z" fill="#FAC0A5"/>
<path d="M39.991 155.548L39.8704 153.88L37.3606 154.153L37.2148 155.223C37.6919 155.421 38.5863 155.66 39.991 155.548Z" fill="#F1BCA4"/>
<path d="M42.2863 151.738C42.334 150.998 42.395 150.257 42.3407 149.609C42.3287 149.47 42.3248 149.331 42.3234 149.192C42.3168 148.629 42.2134 148.05 41.9895 147.474C41.2686 145.622 39.4771 144.442 37.6338 144.608C35.1505 144.835 33.4915 147.264 33.9433 149.837C33.6558 149.726 33.3576 149.74 33.1231 149.908C32.6712 150.23 32.6235 150.99 33.0144 151.606C33.4067 152.222 34.0891 152.46 34.541 152.138C34.6033 152.093 34.6576 152.04 34.7053 151.979C35.2963 154.134 37.7398 155.211 39.7328 154.831C40.7041 154.647 42.1366 154.036 42.2863 151.738Z" fill="#FBC9B2"/>
<path d="M37.9393 146.645C40.9262 146.587 40.9089 144.777 40.9089 144.777L40.8294 144.856C40.6081 145.003 40.1377 145.04 40.1377 145.04C40.6519 143.757 39.1081 143.5 39.1081 143.5C39.1081 143.5 40.1377 144.526 37.8214 144.526C35.5064 144.526 34.9909 145.297 34.9909 145.297C34.9605 145.369 34.9472 145.436 34.9485 145.5C34.9485 145.5 34.9194 145.618 34.979 145.779C35.0241 145.914 35.1036 146.039 35.195 146.15C35.3129 146.286 35.4481 146.409 35.6018 146.506C35.9053 146.705 36.2485 146.836 36.597 146.909C36.6831 146.933 36.7719 146.942 36.8607 146.956C36.9495 146.968 37.0369 146.983 37.1257 146.991L37.3907 147.003C37.4795 147.005 37.567 147.013 37.6558 147.007C37.832 146.999 38.0082 146.993 38.1832 146.972C38.3581 146.946 38.5317 146.921 38.7026 146.884C38.5264 146.865 38.3528 146.858 38.1792 146.85C38.0931 146.85 38.0069 146.837 37.9208 146.832C37.8347 146.824 37.7485 146.82 37.6624 146.813C37.4915 146.799 37.3218 146.775 37.1522 146.758L36.9004 146.715C36.817 146.701 36.7322 146.692 36.6513 146.668L36.4048 146.611L36.165 146.535C36.1014 146.519 36.0431 146.493 35.9835 146.469C36.4234 146.587 37.0502 146.662 37.9393 146.645Z" fill="black"/>
<path d="M81.3648 269.351L77.9062 267.094L74.824 268.849L75.8655 269.63L79.5335 270.243C79.5335 270.243 80.9752 270.096 81.0388 270.055C81.1011 270.014 81.3648 269.351 81.3648 269.351Z" fill="#FBC9B2"/>
<path d="M81.3667 269.351L82.2426 269.947C82.6481 270.217 82.4493 270.85 81.9617 270.841L75.2181 270.7C74.9809 270.695 74.7914 270.499 74.7967 270.261L74.8259 268.85C79.2863 270.372 80.8473 269.969 81.3667 269.351Z" fill="black"/>
<path d="M74.824 264.391L77.8174 266.366L77.9049 267.094L77.3748 268.453L74.824 268.849V264.391Z" fill="#FBC9B2"/>
<path d="M92.408 269.351L88.9494 267.094L85.8672 268.849L86.9087 269.63L90.5767 270.243C90.5767 270.243 92.0184 270.096 92.082 270.055C92.1456 270.014 92.408 269.351 92.408 269.351Z" fill="#FBC9B2"/>
<path d="M92.4099 269.351L93.2858 269.947C93.6913 270.217 93.4926 270.85 93.0049 270.841L86.2613 270.701C86.0241 270.695 85.8347 270.499 85.84 270.261L85.8691 268.851C90.3295 270.372 91.8905 269.97 92.4099 269.351Z" fill="black"/>
<path d="M85.8672 264.392L88.8606 266.366L88.9494 267.094L88.4194 268.453L85.8672 268.849V264.392Z" fill="#FBC9B2"/>
<path d="M94.4036 209.976C92.8505 207.763 90.3447 204.168 89.4794 202.792C89.0845 202.163 88.8328 200.359 88.6459 198.103C86.8504 198.887 84.8799 199.496 83.25 199.929C83.4541 200.71 83.6542 201.393 83.8291 201.934C84.705 204.645 88.4975 208.464 91.1756 210.912C92.2675 210.585 94.4036 209.976 94.4036 209.976Z" fill="#E6B59F"/>
<path d="M88.6383 198.102C88.2142 193.01 88.1122 185.607 87.3979 184.148C86.856 183.041 85.9522 182.879 85.185 182.994C84.2177 183.14 83.3828 183.749 82.8899 184.594C80.824 188.131 82.1054 195.579 83.2424 199.927C84.8723 199.495 86.8427 198.886 88.6383 198.102Z" fill="#E52E2E"/>
<path d="M88.1073 212.132L89.1144 266.365L82.8984 266.251C82.8984 266.251 80.0466 252.17 80.0466 245.638C80.0466 239.107 79.3164 219.644 79.3164 219.644L82.5073 209.978L86.5542 208.41L88.1073 212.132Z" fill="#F4A640"/>
<path d="M86.059 210.851C86.059 210.851 82.138 241.331 80.6565 248.385C79.175 255.44 78.1189 265.977 78.1189 265.977L71.6901 265.927C72.9863 230.94 68.2216 221.29 75.1665 209.328L79.872 206.846L86.059 210.851Z" fill="#FEB546"/>
<path d="M76.4624 185.694L72.2891 213.655C72.2891 213.655 84.3915 213.029 90.4429 214.073C90.4429 214.073 88.3138 198.092 88.9234 196.175C89.5197 194.302 92.7411 191.513 86.9755 183.694C86.7237 183.354 86.3288 183.147 85.9061 183.131L81.2549 182.963L78.8445 182.997L76.4624 185.694Z" fill="#E52E2E"/>
<path d="M83.2611 197.656C82.2407 192.649 81.2681 185.31 80.3869 183.946C79.7177 182.91 78.802 182.856 78.0533 183.061C77.1098 183.319 76.3532 184.022 75.9623 184.92C74.3284 188.676 76.4764 195.921 78.1169 200.106C79.6845 199.481 81.5702 198.645 83.2611 197.656Z" fill="#E52E2E"/>
<path d="M82.0341 179.429L81.793 182.965C81.793 182.965 83.9026 184.527 85.2516 183.126L85.3085 179.856L82.0341 179.429Z" fill="#FBC9B2"/>
<path d="M85.2763 181.857L85.3108 179.855L82.0351 179.429L81.9648 180.459C82.6075 180.978 83.7259 181.673 85.2763 181.857Z" fill="#F99893"/>
<path d="M78.6665 175.675C78.6665 175.675 77.075 171.71 79.3489 169.84C81.6228 167.972 84.2731 167.79 86.1866 168.472C88.1 169.154 89.6027 172.221 89.0462 174.164L82.8698 173.208L78.6665 175.675Z" fill="#030303"/>
<path d="M88.4183 179.052C88.5459 178.769 88.6511 178.471 88.7305 178.162C88.9601 177.33 89.0518 176.463 89.0769 175.711C89.0826 175.55 89.0964 175.389 89.1128 175.228C89.1802 174.579 89.1411 173.901 88.9655 173.218C88.4005 171.019 86.5397 169.499 84.4391 169.532C81.6109 169.575 79.4153 172.231 79.5812 175.238C79.272 175.086 78.9349 175.075 78.6473 175.248C78.0959 175.579 77.9398 176.451 78.2987 177.196C78.6575 177.942 79.3956 178.275 79.9483 177.944C80.0245 177.898 80.0937 177.84 80.1544 177.775C80.5335 180.31 82.558 182.1 84.8544 181.838C85.9778 181.709 86.968 181.111 87.689 180.233C87.7378 180.181 87.7887 180.12 87.8418 180.051C88.0722 179.75 88.2624 179.41 88.4183 179.052Z" fill="#FBC9B2"/>
<path d="M80.4773 175.107C80.4773 175.107 83.5287 173.416 84.981 171.28C84.981 171.28 85.0857 172.328 84.774 172.742C84.8987 172.8 87.008 171.644 87.2993 169.938C87.5918 168.231 84.6301 169.277 84.6301 169.277C84.6301 169.277 82.8596 169.239 82.7895 169.286C82.7181 169.332 81.578 170.214 81.5292 170.278C81.479 170.341 79.4285 172.412 79.4285 172.412L78.9458 173.8L79.5486 175.194L80.4773 175.107Z" fill="#030303"/>
<path d="M91.8785 210.437C91.8785 210.437 86.1646 204.096 84.646 202.211C84.1796 201.633 83.7184 199.871 83.2652 197.652C81.5744 198.641 79.69 199.478 78.1211 200.1C78.4166 200.853 78.6949 201.507 78.9321 202.023C80.8164 206.125 90.2977 212.132 90.2977 212.132L92.2854 213.279C92.6484 213.488 93.0963 213.481 93.4528 213.26L96.2024 211.557C96.6596 210.968 95.5385 210.271 94.9608 210.086C93.6383 209.663 91.8785 210.437 91.8785 210.437Z" fill="#FBC9B2"/>
<path d="M49.1328 266.519V263.905L52.1249 263.077L52.7915 263.369L52.9054 266.519L51.9633 269.264L49.1328 266.519Z" fill="#FFC0BB"/>
<path d="M55.6453 212.903L53.5211 264.629H48.5758L44.2188 225.533L49.9314 208.017L55.6453 212.903Z" fill="#E52E2E"/>
<path d="M50.8789 177.328C50.8789 177.328 59.2378 187.365 61.3938 193.343L52.1563 191.096L50.8789 177.328Z" fill="#F99406"/>
<path d="M30.0117 266.519V263.905L33.0038 263.077L33.6704 263.369L33.7843 266.519L32.8409 269.264L30.0117 266.519Z" fill="#FFC0BB"/>
<path d="M53.521 213.012L34.1476 264.627L29.4023 264.24C29.4023 264.24 33.7753 217.343 37.3094 212.843C40.8435 208.343 50.1233 208.887 50.1233 208.887L53.521 213.012Z" fill="#E52E2E"/>
<path d="M41.4246 176.195C41.4246 176.195 33.4844 175.943 31.7194 179.595C29.9543 183.248 26.0478 203.024 34.0516 203.339C34.0516 203.339 35.8789 203.465 36.8251 202.142L36.5097 214.549C36.5097 214.549 48.6094 217.635 55.5411 214.549C55.5411 214.549 55.6047 180.855 50.878 177.328C50.878 177.328 48.6094 176.384 41.4246 176.195Z" fill="#CD9A67"/>
<path d="M42.8497 188.113L42.2388 189.426C42.1885 189.535 42.2362 189.664 42.3448 189.714L45.1634 191.014C45.386 191.118 45.606 190.866 45.4735 190.659L44.4995 188.722C44.4982 188.722 43.6117 189.068 42.8497 188.113Z" fill="#1C1C1C"/>
<path d="M41.1991 185.375L43.2981 186.839L42.4394 188.914H44.7398L44.2137 176.488L42.6028 170.815L33.4245 171.179C33.4245 171.179 31.3454 178.374 40.7975 180.307L41.1991 185.375Z" fill="#BE1E2D"/>
<path d="M44.6124 159.588L43.0156 156.049L44.032 155.718C46.2251 155.441 48.2022 154.218 48.5043 153.836C49.1443 153.029 46.1628 148.313 46.1628 148.313L48.067 147.735C48.067 147.735 53.1051 153.293 51.3944 155.52C49.6837 157.746 45.1398 159.487 45.1398 159.487L44.6124 159.588Z" fill="#FBC9B2"/>
<path d="M47.7905 187.176L47.324 188.548C47.2856 188.662 47.3465 188.785 47.4592 188.823L50.6779 189.916C50.9111 189.995 51.1033 189.721 50.9482 189.53L49.5754 187.784C49.5767 187.782 48.6505 188.045 47.7905 187.176Z" fill="#1C1B1B"/>
<path d="M46.9436 172.888C46.9436 172.888 50.9531 175.029 50.8802 181.724L50.1342 188.227C50.1342 188.227 47.4654 187.343 47.6284 187.343C47.7914 187.343 46.1456 178.459 46.1456 178.459L44.7383 174.556L46.9436 172.888Z" fill="#BE1E2D"/>
<path d="M35.0754 159.91C32.62 161.013 26.9922 168.482 25.1714 170.96L25.1237 171.066C24.381 173.829 19.0124 173.653 22.6524 170.916C22.6524 170.916 23.2116 170.519 23.4342 170.38L23.7536 169.705C25.9175 163.721 33.6946 156.794 33.6946 156.794L35.0754 159.91Z" fill="#FBC9B2"/>
<path d="M37.0165 156.692C37.0165 156.692 33.2306 155.935 31.765 157.699C30.4359 159.298 28.5728 160.932 28.6973 160.891C28.8232 160.849 31.3436 163.661 31.3436 163.661L33.5698 161.437L32.898 171.472H45.3144L43.5772 160.066C43.5772 160.066 44.2 160.009 46.034 159.506L44.7261 155.244C44.7261 155.244 41.2595 156.441 39.5793 156.567C37.899 156.692 37.0165 156.692 37.0165 156.692Z" fill="#FEB546"/>
<path d="M41.7891 176.713C41.7891 177.548 46.415 177.726 46.415 176.713V171.031H41.7891V176.713Z" fill="#FBC9B2"/>
<path d="M47.0137 173.492C49.1421 172.645 49.945 169.64 48.8069 166.78C47.6689 163.919 45.021 162.287 42.8926 163.134C40.7642 163.981 39.9614 166.986 41.0994 169.846C42.2374 172.707 44.8853 174.339 47.0137 173.492Z" fill="#FBC9B2"/>
<path d="M41.8808 171.664C42.2976 171.366 42.2889 170.64 41.8614 170.043C41.4339 169.446 40.7495 169.204 40.3327 169.503C39.916 169.801 39.9247 170.527 40.3522 171.124C40.7797 171.721 41.4641 171.963 41.8808 171.664Z" fill="#FBC9B2"/>
<path d="M37.2148 167.919C37.2148 167.147 37.9349 166.298 38.0712 165.328C38.1415 164.837 37.9888 162.792 38.5622 162.1C39.7598 160.667 40.4575 160.961 41.3692 160.627C42.9576 160.046 43.5654 159.083 44.8768 159.083C46.3738 159.083 46.9727 159.856 48.0341 159.856C49.2527 159.856 50.2527 159.295 51.9639 159.295C52.8756 159.295 54.0672 160.492 54.0672 161.54C54.0672 164.028 51.7528 163.672 51.7528 164.277C51.7528 164.697 51.8935 165.025 51.8935 165.611C51.8935 166.359 50.9114 166.808 50.35 166.808C48.6404 166.808 48.4128 166.6 48.4128 166.6C48.0739 165.922 47.6405 165.295 47.1254 164.738C47.0565 164.666 45.9457 165.45 44.1313 165.512C42.6447 165.561 41.5967 165.849 41.5967 166.54C41.5967 167.03 41.7764 168.487 41.7659 168.891C41.7554 169.295 41.6162 169.564 41.5189 169.564C41.4216 169.564 41.3692 169.433 40.8048 169.433C40.1925 169.433 40.1446 170.181 40.0398 170.181C39.426 170.177 37.2148 169.678 37.2148 167.919Z" fill="#FD8369"/>
<path d="M39.9157 174.558C40.2311 174.558 44.1773 175.632 44.2979 178.493C44.4185 181.355 39.2227 177.329 39.2227 177.329L39.9157 174.558Z" fill="#BE1E2D"/>
<path d="M45.5575 179.998C45.7152 179.48 46.5023 178.248 48.0474 177.995C49.354 177.782 51.1866 180.162 51.718 180.9C51.4715 181.024 51.2303 181.154 50.9918 181.292C50.7162 181.449 50.4459 181.616 50.1795 181.79C49.9132 181.962 49.6508 182.143 49.395 182.332C49.2612 182.429 49.1313 182.531 49.0028 182.634C48.1468 182.033 47.1993 181.521 46.6905 181.747C45.6197 182.221 45.3998 180.514 45.5575 179.998Z" fill="#FBC9B2"/>
<path d="M47.6289 182.13L51.2571 179.266C51.2571 179.266 65.2703 193.326 61.0352 197.893C56.8001 202.461 47.6289 182.13 47.6289 182.13Z" fill="#CD9A67"/>
<path d="M46.3689 184.54C46.2112 184.022 45.424 182.791 43.8789 182.538C42.5724 182.325 40.7397 184.704 40.207 185.442C40.4535 185.567 40.6947 185.696 40.9332 185.834C41.2088 185.992 41.4791 186.159 41.7455 186.332C42.0119 186.504 42.2742 186.686 42.53 186.875C42.6625 186.972 42.7937 187.072 42.9222 187.176C43.7782 186.574 44.7257 186.062 45.2346 186.288C46.3066 186.764 46.5266 185.058 46.3689 184.54Z" fill="#FBC9B2"/>
<path d="M136.219 218.432C136.219 218.432 130.535 213.402 126.42 215.133C124.293 216.027 115.376 214.232 122.088 224.459H135.837L136.219 218.432Z" fill="#FED385"/>
<path d="M127.728 250.15C127.248 249.632 126.765 249.096 126.278 248.537C122.201 243.864 119.433 239.55 119.317 239.369L120.877 238.373C120.938 238.468 124.335 243.738 129.009 248.802C133.682 243.737 137.08 238.468 137.141 238.373L138.7 239.369C138.585 239.55 135.816 243.864 131.74 248.537C131.253 249.096 130.77 249.632 130.29 250.15C133.795 253.728 137.863 256.954 141.73 257.838L141.318 259.642C137.622 258.797 133.492 256.06 129.01 251.494C124.527 256.06 120.397 258.797 116.701 259.642L116.289 257.838C120.155 256.954 124.222 253.728 127.728 250.15Z" fill="#E60400"/>
<path d="M92.5953 213.043C92.6126 212.546 93.4362 211.983 94.3624 211.578C95.2395 211.195 96.208 210.955 96.6692 211.048C100.548 211.833 108.662 222.066 109.623 223.291H133.489L133.134 202.074C133.122 201.38 133.79 200.877 134.455 201.078C134.498 201.092 134.542 201.105 134.586 201.121C134.618 201.132 134.649 201.146 134.679 201.16C134.734 201.186 134.785 201.215 134.834 201.25C135.464 201.696 139.193 204.177 144.197 204.125C144.227 204.125 144.256 204.125 144.286 204.125C144.534 204.121 144.772 204.204 144.958 204.356C145.042 204.424 145.115 204.506 145.175 204.6C145.883 205.722 147.73 208.484 149.745 210.185C149.995 210.395 150.229 210.622 150.445 210.86C151.165 211.648 151.702 212.579 152.019 213.589C152.182 214.112 152.286 214.656 152.325 215.213C152.49 217.563 153.062 220.378 154.766 221.473C154.799 221.494 154.83 221.517 154.861 221.542C155.077 221.72 155.21 221.984 155.226 222.267L155.43 225.468L155.431 225.473V225.474V225.474C155.443 225.562 155.45 225.652 155.452 225.742C155.453 225.76 155.453 225.779 155.453 225.797V237.438C155.453 238.816 154.325 239.945 152.946 239.945H109.361C107.982 239.945 106.854 238.817 106.854 237.438V225.797C106.854 225.299 107.002 224.833 107.255 224.442C103.519 222.588 92.4662 216.782 92.5953 213.043Z" fill="#BE1E2D"/>
<path opacity="0.2" d="M99.0017 217.136C96.3975 215.563 95.0455 213.488 94.3609 211.576C95.238 211.194 96.2065 210.953 96.6677 211.046C98.1223 211.341 100.173 212.964 102.217 214.941C105.626 218.239 109.021 222.523 109.621 223.289C109.621 223.289 103.396 219.789 99.0017 217.136Z" fill="#35868F"/>
<path opacity="0.2" d="M144.195 204.125C142.683 204.773 139.862 205.725 137.787 204.894C135.74 204.075 134.963 202.229 134.678 201.16C134.732 201.186 134.784 201.215 134.833 201.25C135.463 201.696 139.192 204.176 144.195 204.125Z" fill="#BE1E2D"/>
<path opacity="0.2" d="M155.453 225.798V237.438C155.453 238.817 154.325 239.945 152.946 239.945H109.361C107.982 239.945 106.854 238.818 106.854 237.438V234.475C111.282 237.482 128.641 238.156 138.596 237.697C147.719 237.278 153.645 228.739 155.452 225.742C155.453 225.76 155.453 225.78 155.453 225.798Z" fill="#BE1E2D"/>
<path d="M138.446 263.604C138.446 259.462 141.804 256.105 145.946 256.105C150.088 256.105 153.445 259.462 153.445 263.604C153.445 267.746 150.088 271.104 145.946 271.104C141.804 271.104 138.446 267.746 138.446 263.604Z" fill="#C39367"/>
<path d="M107.412 266.649C105.727 262.866 107.428 258.433 111.212 256.748C114.995 255.063 119.428 256.764 121.113 260.548C122.798 264.331 121.097 268.765 117.313 270.449C113.53 272.134 109.097 270.433 107.412 266.649Z" fill="#C39367"/>
<path d="M114.254 267.154C112.221 267.154 110.574 265.507 110.574 263.474C110.574 261.442 112.221 259.794 114.254 259.794C116.286 259.794 117.934 261.442 117.934 263.474C117.934 265.507 116.286 267.154 114.254 267.154Z" fill="#E52E2E"/>
<path d="M145.914 267.154C143.881 267.154 142.234 265.507 142.234 263.474C142.234 261.442 143.881 259.794 145.914 259.794C147.946 259.794 149.594 261.442 149.594 263.474C149.594 265.507 147.946 267.154 145.914 267.154Z" fill="#E52E2E"/>
<ellipse cx="46.7842" cy="146.998" rx="1.18553" ry="2.12783" transform="rotate(-20.0357 46.7842 146.998)" fill="#FBC9B2"/>
<path d="M34.8792 269.729C34.8792 269.729 34.6301 267.515 34.054 266.198C33.4778 264.882 29.8089 265.72 29.8089 265.72C29.8089 265.72 29.075 266.438 28.918 269.789L34.8792 269.729Z" fill="black"/>
<path d="M47.8555 266.113V270.243H61.0259V268.614L53.2997 265.457L47.8555 266.113Z" fill="black"/>
<path d="M171.505 251.225L166.402 254.149L173.82 265.948H173.819L172.91 267.434L172.546 268.031L172.607 268.671C172.607 268.671 173.019 268.475 173.066 268.548C173.114 268.621 173.852 268.365 174.471 268.03C175.09 267.695 175.055 267.739 176.106 267.251C177.157 266.764 176.846 266.626 176.976 266.47C177.06 266.367 176.946 265.961 176.856 265.693C176.862 265.685 176.868 265.675 176.873 265.667L176.418 264.71C176.418 264.715 171.505 251.225 171.505 251.225Z" fill="#FBC9B2"/>
<path d="M169.742 259.463L173.818 265.947H173.817L172.908 267.433L172.544 268.03L172.604 268.67C172.604 268.67 173.017 268.474 173.064 268.547C173.112 268.62 173.85 268.364 174.469 268.029C175.088 267.694 175.053 267.738 176.104 267.25C177.155 266.763 176.844 266.625 176.973 266.469C177.058 266.366 176.944 265.96 176.854 265.692C176.859 265.684 176.866 265.674 176.871 265.666L176.416 264.709C176.414 264.71 175.11 261.132 173.846 257.66C172.276 258.629 170.699 259.184 169.742 259.463Z" fill="white"/>
<path d="M174.539 267.627C173.524 268.24 172.911 268.248 172.542 268.031L172.043 268.844C171.845 269.162 172.184 269.543 172.523 269.382L177.211 267.153C177.377 267.075 177.447 266.876 177.369 266.712L176.766 265.446C176.614 265.899 176.113 266.676 174.539 267.627Z" fill="black"/>
<path d="M164.087 252.575L158.221 253.025L159.848 266.866L159.847 266.864L158.388 267.817L157.802 268.199L157.582 268.803C157.582 268.803 158.038 268.803 158.05 268.889C158.062 268.975 158.838 269.061 159.541 269.026C160.243 268.989 160.194 269.012 161.352 269.026C162.51 269.038 162.289 268.779 162.473 268.693C162.594 268.636 162.665 268.222 162.7 267.941C162.708 267.936 162.718 267.93 162.726 267.926V266.867C162.725 266.866 164.087 252.575 164.087 252.575Z" fill="#FBC9B2"/>
<path d="M181.218 225.322C176.582 229.072 169.198 231.16 169.198 231.16C169.198 231.16 165.899 236.883 169.612 236.044C172.868 235.308 180.182 228.953 181.937 227.397L182.625 226.897L182.626 226.897C182.626 226.896 182.626 226.896 182.628 226.895C182.842 226.79 183.036 226.711 183.036 226.711C187.444 224.047 181.745 224.036 181.218 225.322Z" fill="#FBC9B2"/>
<path d="M152.666 221.471C156.189 226.282 162.794 230.19 162.794 230.19C162.794 230.19 164.519 236.567 161.144 234.805C158.185 233.261 152.74 225.246 151.441 223.293L150.905 222.634H150.903C150.903 222.632 150.903 222.632 150.902 222.631C147.24 219.456 152.4 219.447 152.666 221.471Z" fill="#FBC9B2"/>
<path d="M168.767 217.1C168.919 216.884 169.217 216.835 169.432 216.989L170.366 217.663C170.598 217.83 170.638 218.159 170.452 218.377C170.284 218.574 169.991 218.606 169.784 218.448L168.867 217.752C168.663 217.597 168.619 217.309 168.767 217.1Z" fill="#FEE4CB"/>
<path d="M168.535 216.967C168.535 216.967 169.711 210.315 178.623 210.071C187.536 209.826 187.332 218.168 193.77 218.372C193.77 218.372 185.782 223.628 178.907 220.621C173.691 218.34 171.37 218.544 170.554 218.774C170.064 218.912 169.519 218.912 169.065 218.703C168.554 218.463 168.142 217.976 168.535 216.967Z" fill="#FD8369"/>
<path d="M167.082 227.646H163.734V230.992H167.082V227.646Z" fill="#FBC9B2"/>
<path d="M167.082 229.651V227.646H163.734V229.352C164.454 229.74 165.522 229.963 167.082 229.651Z" fill="#F3BEA5"/>
<path d="M158.954 259.259L159.848 266.864L159.847 266.863L158.388 267.815L157.802 268.198L157.582 268.802C157.582 268.802 158.038 268.802 158.05 268.888C158.062 268.974 158.838 269.06 159.541 269.024C160.243 268.987 160.194 269.011 161.352 269.024C162.51 269.036 162.289 268.778 162.473 268.692C162.594 268.635 162.665 268.22 162.7 267.94C162.708 267.934 162.718 267.929 162.726 267.925V266.866C162.724 266.867 163.085 263.074 163.435 259.397C161.601 259.594 159.938 259.418 158.954 259.259Z" fill="white"/>
<path d="M159.777 268.69C158.598 268.808 158.041 268.553 157.802 268.198L157.002 268.72C156.686 268.921 156.829 269.412 157.204 269.412H162.396C162.579 269.412 162.727 269.264 162.727 269.081V267.679C162.393 268.022 161.606 268.508 159.777 268.69Z" fill="black"/>
<path d="M169.887 223.752C169.887 223.752 172.239 220.064 170.088 218.296C167.937 216.528 165.43 216.357 163.62 217.002C161.81 217.647 160.389 220.548 160.916 222.385L166.758 221.481L169.887 223.752Z" fill="#FD8369"/>
<path d="M161.554 223.168C161.684 223.717 161.42 224.239 160.964 224.334C160.508 224.43 160.034 224.063 159.904 223.513C159.774 222.964 160.038 222.442 160.494 222.347C160.95 222.251 161.424 222.619 161.554 223.168Z" fill="#FBC9B2"/>
<path d="M161.196 226.192C161.1 225.948 161.029 225.695 160.98 225.434C160.837 224.733 160.827 224.011 160.87 223.39C160.879 223.256 160.88 223.124 160.879 222.99C160.872 222.45 160.969 221.896 161.196 221.346C161.921 219.578 163.808 218.471 165.783 218.659C168.443 218.912 170.276 221.27 169.855 223.734C170.16 223.632 170.478 223.651 170.734 223.815C171.224 224.13 171.295 224.861 170.89 225.446C170.486 226.032 169.761 226.252 169.271 225.935C169.204 225.891 169.144 225.838 169.092 225.78C168.512 227.839 166.447 229.158 164.308 228.764C163.263 228.572 162.382 228.002 161.78 227.224C161.739 227.177 161.697 227.124 161.653 227.062C161.459 226.793 161.311 226.499 161.196 226.192Z" fill="#FBC9B2"/>
<path d="M162.356 229.882C162.229 229.959 162.009 230.118 161.734 230.422C163.468 231.264 167.136 232.532 169.8 229.882H162.356Z" fill="#FBC9B2"/>
<path d="M169.803 229.882C169.803 229.882 168.818 229.75 168.438 229.882C166.665 230.498 164.27 230.412 162.36 229.882C161.738 230.216 160.732 231.319 159.773 234.309C159.487 235.558 159.15 236.99 158.782 238.498C157.414 244.094 155.607 250.724 154.262 252.819C154.262 252.819 157.511 255.891 161.281 253.949C161.281 253.949 165.585 256.428 169.631 253.921C169.631 253.921 172.898 255.873 176.295 252.819C173.83 248.977 169.803 229.882 169.803 229.882Z" fill="#CD9A67"/>
<path opacity="0.3" d="M169.631 251.105C165.584 253.612 161.281 251.133 161.281 251.133C158.77 252.427 156.491 251.496 155.248 250.73C154.902 251.619 154.569 252.339 154.262 252.819C154.262 252.819 157.511 255.891 161.281 253.949C161.281 253.949 165.585 256.428 169.631 253.921C169.631 253.921 172.898 255.873 176.295 252.819C175.99 252.343 175.66 251.632 175.317 250.753C172.298 252.698 169.631 251.105 169.631 251.105Z" fill="#CD9A67"/>
<path d="M20.5974 259.167C17.3863 261.927 12.9358 262.321 9.38672 260.406C12.8795 264.293 18.851 264.687 22.7945 261.251C26.7943 257.758 27.1886 251.73 23.6959 247.73C23.3578 247.336 22.9635 246.942 22.5691 246.604C25.0479 250.716 24.2592 256.012 20.5974 259.167Z" fill="#FE7062"/>
<path d="M18.0616 256.237C15.1322 258.772 11.1887 259.335 7.80859 257.927C8.20294 258.772 8.70996 259.617 9.32964 260.349C9.38598 260.406 9.38598 260.406 9.44231 260.462C12.9914 262.321 17.4419 261.983 20.653 259.223C24.3148 256.012 25.0472 250.716 22.6811 246.66C22.1177 246.209 21.5544 245.871 20.9347 245.533C22.1741 249.251 21.2164 253.533 18.0616 256.237Z" fill="#F9BD52"/>
<path d="M18.0626 256.237C21.2174 253.533 22.1751 249.251 20.9357 245.533C17.5556 243.843 13.3305 244.181 10.2884 246.885C7.02091 249.702 6.17588 254.265 7.8096 257.983C11.1334 259.335 15.1332 258.772 18.0626 256.237Z" fill="#FE7062"/>
<path d="M188.368 263.885C188.368 263.885 182.046 251.55 181.177 254.751C180.319 257.963 188.368 263.885 188.368 263.885Z" fill="#800200"/>
<path d="M186.515 264.145C186.515 264.145 180.226 258.315 179.627 259.432C179.033 260.55 186.515 264.145 186.515 264.145Z" fill="#800200"/>
<path d="M189.377 263.653C189.361 263.529 185.69 253.402 188.594 253.704C191.488 254.012 189.377 263.653 189.377 263.653Z" fill="#800200"/>
<path d="M192.74 263.4C192.74 263.4 196.74 257.209 195.034 257.66C193.327 258.119 192.74 263.4 192.74 263.4Z" fill="#800200"/>
<path d="M192.128 262.616C192.128 262.616 193.141 258.17 192.467 258.191C191.794 258.214 192.128 262.616 192.128 262.616Z" fill="#800200"/>
<path d="M193.116 263.803C193.168 263.762 196.856 259.379 197.489 260.797C198.117 262.211 193.116 263.803 193.116 263.803Z" fill="#800200"/>
<circle cx="434" cy="150" r="4" fill="#E0E0E0"/>
<path d="M351.774 266.688C351.774 266.688 345.453 254.353 344.584 257.554C343.725 260.766 351.774 266.688 351.774 266.688Z" fill="#800200"/>
<path d="M349.922 266.947C349.922 266.947 343.633 261.117 343.034 262.235C342.44 263.352 349.922 266.947 349.922 266.947Z" fill="#800200"/>
<path d="M352.783 266.456C352.767 266.332 349.096 256.204 352.001 256.507C354.894 256.814 352.783 266.456 352.783 266.456Z" fill="#800200"/>
<path d="M356.146 266.202C356.146 266.202 360.146 260.012 358.441 260.463C356.733 260.921 356.146 266.202 356.146 266.202Z" fill="#800200"/>
<path d="M355.534 265.418C355.534 265.418 356.547 260.972 355.873 260.993C355.201 261.017 355.534 265.418 355.534 265.418Z" fill="#800200"/>
<path d="M356.522 266.605C356.575 266.565 360.263 262.182 360.896 263.6C361.523 265.014 356.522 266.605 356.522 266.605Z" fill="#800200"/>
</g>
</g>
<defs>
<linearGradient id="paint0_linear_614_122" x1="403.15" y1="177.179" x2="404.02" y2="187.283" gradientUnits="userSpaceOnUse">
<stop stop-color="#FEBBBA"/>
<stop offset="1" stop-color="#FF928E"/>
</linearGradient>
<linearGradient id="paint1_linear_614_122" x1="435.583" y1="199.087" x2="436.668" y2="274.034" gradientUnits="userSpaceOnUse">
<stop stop-color="#ED2E53"/>
<stop offset="1" stop-color="#4042E2"/>
</linearGradient>
<linearGradient id="paint2_linear_614_122" x1="434.074" y1="206.177" x2="439.354" y2="206.177" gradientUnits="userSpaceOnUse">
<stop stop-color="#FEBBBA"/>
<stop offset="1" stop-color="#FF928E"/>
</linearGradient>
<clipPath id="clip0_614_122">
<rect width="464" height="282" fill="white"/>
</clipPath>
<clipPath id="clip1_614_122">
<rect width="464" height="356" fill="white" transform="matrix(-1 0 0 1 464 -34)"/>
</clipPath>
</defs>
</svg>
